<svg width="25" height="25" viewBox="0 0 25 25" fill="none" xmlns="http://www.w3.org/2000/svg">
<path d="M11.491 7.76819H0.398438V17.7575C0.398438 17.8295 0.398437 17.9014 0.410429 17.9614H11.491V7.76819Z" fill="#EFEEE0" fill-opacity="0.25"/>
<path d="M7.2218 5.96939H11.491V0.740875H7.25778V5.82549C7.25778 5.87345 7.23379 5.92142 7.2218 5.96939Z" fill="#EFEEE0" fill-opacity="0.25"/>
<path d="M5.45905 5.82549V0.932747C2.79683 1.48438 1.05799 3.2592 0.554321 5.96939H5.48304C5.47104 5.92142 5.45905 5.87345 5.45905 5.82549Z" fill="#EFEEE0" fill-opacity="0.25"/>
<path d="M17.451 0.740875H13.2898V5.96939H17.451V0.740875Z" fill="#EFEEE0" fill-opacity="0.25"/>
<path d="M19.2378 5.96939H24.2265C23.7228 3.23521 21.96 1.4484 19.2498 0.920753V5.93341C19.2498 5.94541 19.2378 5.9574 19.2378 5.96939Z" fill="#EFEEE0" fill-opacity="0.25"/>
<path d="M19.2498 24.545C21.876 24.0293 23.6029 22.3505 24.1665 19.7602H19.2498V24.545Z" fill="#EFEEE0" fill-opacity="0.25"/>
<path d="M17.451 19.7602H13.2898V24.7249H17.451V19.7602Z" fill="#EFEEE0" fill-opacity="0.25"/>
<path d="M13.2898 17.9614H24.3704C24.3824 17.9014 24.3824 17.8295 24.3824 17.7575V7.76819H13.2898V17.9614Z" fill="#EFEEE0" fill-opacity="0.25"/>
<path d="M11.491 19.7602H7.25781V24.7249H11.491V19.7602Z" fill="#EFEEE0" fill-opacity="0.25"/>
<path d="M0.614136 19.7602C1.17776 22.3265 2.88063 24.0054 5.45891 24.533V19.7602H0.614136Z" fill="#EFEEE0" fill-opacity="0.25"/>
</svg>
